# xmcd CD database file
# Generated: Tue Nov 9 22:37:19 1999 by KSCD
# 
# Track frame offsets:
#       150
#       16810
#       33350
#       54695
#       80277
#       97720
#       112317
#       138205
#       151885
#       165150
#
# Disc length: 2320 seconds
#
# Revision: 2
# Processed by: cddbd v1.4b41PL1 Copyright (c) Steve Scherf et al.
# Submitted via: Kscd 1.2.7
#
DISCID=69090e0a
DTITLE=Say Uncle - Too Much Fun
DYEAR=1900
DGENRE=
TTITLE0=Wild Woman
TTITLE1=Too Much Fun
TTITLE2=I Ain't Drunk
TTITLE3=God Must Listen To The Blues
TTITLE4=Kansas City
TTITLE5=Let's Not Beat Around The Bush
TTITLE6=I Play The Blues For You
TTITLE7=Good Time
TTITLE8=If I Hadn't A Been High
TTITLE9=Man From Uncle
EXTD=
EXTT0=
EXTT1=
EXTT2=
EXTT3=
EXTT4=
EXTT5=
EXTT6=
EXTT7=
EXTT8=
EXTT9=
PLAYORDER=
